<?xml version="1.0" encoding="utf-8"?>
<!-- Generator: Adobe Illustrator 18.1.1, SVG Export Plug-In . SVG Version: 6.00 Build 0)  -->
<svg version="1.1" id="Calque_1" xmlns="http://www.w3.org/2000/svg" xmlns:xlink="http://www.w3.org/1999/xlink" x="0px" y="0px"
	 viewBox="0 0 512 512" enable-background="new 0 0 512 512" xml:space="preserve">
<path fill="#00A69A" d="M379,321.9c10.8,0,19.6,8.8,19.6,19.6h19.6c0-21.7-17.6-39.3-39.3-39.3s-39.3,17.6-39.3,39.3h-19.6v19.6
	h19.6v19.6h-19.6v19.6h19.6c0,21.7,17.6,39.3,39.3,39.3s39.3-17.6,39.3-39.3h-19.6c0,10.8-8.8,19.6-19.6,19.6s-19.6-8.8-19.6-19.6
	H379v-19.6h-19.6v-19.6H379v-19.6h-19.6C359.4,330.7,368.2,321.9,379,321.9z"/>
<path fill="#404175" d="M126.2,32.4c-59.5,0-108,48.4-108,108s48.4,108,108,108s108-48.4,108-108S185.7,32.4,126.2,32.4z
	 M126.2,228.7c-48.7,0-88.3-39.6-88.3-88.3s39.6-88.3,88.3-88.3s88.3,39.6,88.3,88.3S174.9,228.7,126.2,228.7z"/>
<path fill="#404175" d="M379,263c-59.5,0-108,48.4-108,108s48.4,108,108,108s108-48.4,108-108S438.6,263,379,263z M379,459.3
	c-48.7,0-88.3-39.6-88.3-88.3s39.6-88.3,88.3-88.3s88.3,39.6,88.3,88.3S427.8,459.3,379,459.3z"/>
<path fill="#00A69A" d="M126.2,110.9c5.4,0,9.8,4.4,9.8,9.8h19.6c0-12.8-8.2-23.6-19.6-27.6V71.7h-19.6v21.4
	C105,97.2,96.7,108,96.7,120.8c0,16.2,13.2,29.4,29.4,29.4c5.4,0,9.8,4.4,9.8,9.8c0,5.4-4.4,9.8-9.8,9.8c-5.4,0-9.8-4.4-9.8-9.8
	H96.7c0,12.8,8.2,23.6,19.6,27.6v21.4H136v-21.4c11.4-4.1,19.6-14.9,19.6-27.6c0-16.2-13.2-29.4-29.4-29.4c-5.4,0-9.8-4.4-9.8-9.8
	S120.8,110.9,126.2,110.9z"/>
<path fill="#404175" d="M396.5,225.1l104.7-78.5L396.5,68v39.3h-88.3v19.6h108v-19.6l52.3,39.3l-52.3,39.3v-19.6H268.9v19.6h127.6
	V225.1z"/>
<path fill="#404175" d="M268.9,107.3h19.6v19.6h-19.6V107.3z"/>
<path fill="#404175" d="M114.7,292.4L10,370.9l104.7,78.5v-39.3h88.3v-19.6h-108v19.6l-52.3-39.3l52.3-39.3v19.6h147.2v-19.6H114.7
	V292.4z"/>
<path fill="#404175" d="M222.7,390.6h19.6v19.6h-19.6V390.6z"/>
</svg>
