<?xml version="1.0" encoding="utf-8"?>
<!-- Generator: Adobe Illustrator 18.1.1, SVG Export Plug-In . SVG Version: 6.00 Build 0)  -->
<svg version="1.1" id="Calque_1" xmlns="http://www.w3.org/2000/svg" xmlns:xlink="http://www.w3.org/1999/xlink" x="0px" y="0px"
	 viewBox="0 0 512 512" enable-background="new 0 0 512 512" xml:space="preserve">
<g>
	<g>
		<path fill="#404175" d="M406.9,158c-1.7-1.7-4.1-2.7-6.4-2.7c-2.4,0-4.8,1-6.5,2.7c-1.7,1.7-2.7,4.1-2.7,6.6c0,2.4,1,4.9,2.7,6.6
			c1.7,1.7,4.1,2.7,6.5,2.7c2.4,0,4.8-1,6.4-2.7c1.7-1.7,2.7-4.1,2.7-6.6C409.6,162.1,408.6,159.7,406.9,158z"/>
	</g>
</g>
<g>
	<g>
		<path fill="#404175" d="M400.5,137.1c5,0,9.1-4.2,9.1-9.3V45.4c0-15.4-12.3-27.9-27.4-27.9H50.1C35,17.4,22.8,30,22.8,45.4v420.9
			c0,15.4,12.3,27.9,27.4,27.9h332.1c15.1,0,27.4-12.5,27.4-27.9v-41.8c0-5.1-4.1-9.3-9.1-9.3s-9.1,4.2-9.1,9.3v41.8
			c0,5.1-4.1,9.3-9.1,9.3H50.1c-5,0-9.1-4.2-9.1-9.3V45.4c0-5.1,4.1-9.3,9.1-9.3h332.1c5,0,9.1,4.2,9.1,9.3v82.4
			C391.3,132.9,395.4,137.1,400.5,137.1z"/>
	</g>
</g>
<g>
	<g>
		<path fill="#404175" d="M482,392l-47.1-48c8.1-14.8,12.7-31.8,12.7-49.9c0-56.4-45-102.4-100.3-102.4c-0.6,0-1.1,0-1.7,0v-51.2
			c0-5.1-4.1-9.3-9.1-9.3h-53.3V80.9c0-5.1-4.1-9.3-9.1-9.3h-62.4c-5,0-9.1,4.2-9.1,9.3v55.9h-53.3c-5,0-9.1,4.2-9.1,9.3v50.3H95.8
			c-5,0-9.1,4.2-9.1,9.3v50.3c0,5.1,4.1,9.3,9.1,9.3h155.4c-2.6,9.1-4,18.8-4,28.8c0,56.4,45,102.4,100.3,102.4
			c17.7,0,34.4-4.7,48.9-13l46.8,47.7c5.5,5.6,12.7,8.5,19.8,8.5c6.7,0,13.3-2.5,18.5-7.4c5.5-5.2,8.6-12.3,8.7-20
			C490.1,404.6,487.3,397.4,482,392z M140.2,246.6h-35.3V215h35.3L140.2,246.6L140.2,246.6z M202.6,246.6h-44.2v-41v-50.3h44.2
			V246.6z M220.8,246.6V146V90.2H265v50.3v33.7v12.7c0,5.1,4.1,9.3,9.1,9.3s9.1-4.2,9.1-9.3v-12.7v-24.4h44.2v43.9
			c-30,6.2-55.1,26.1-69,52.9H220.8z M347.4,377.8c-45.2,0-82-37.6-82-83.8s36.8-83.8,82-83.8s82,37.6,82,83.8
			S392.6,377.8,347.4,377.8z M468.8,418.5c-3.5,3.4-9.4,3.1-13-0.6l-44.4-45.3c4.7-4,9-8.4,12.9-13.2l44.7,45.6
			c1.8,1.8,2.7,4.2,2.7,6.8C471.7,414.4,470.7,416.8,468.8,418.5z"/>
	</g>
</g>
<g>
	<g>
		<path fill="#00A69A" d="M371.1,246.4c-4.4-2.5-10-0.9-12.4,3.5l-49.1,88.7c-2.5,4.5-0.9,10.2,3.5,12.7c1.4,0.8,3,1.2,4.5,1.2
			c3.2,0,6.3-1.7,8-4.7l49.1-88.7C377.1,254.6,375.5,249,371.1,246.4z"/>
	</g>
</g>
<g>
	<g>
		<path fill="#00A69A" d="M379.2,302c-15.1,0-27.4,12.5-27.4,27.9c0,15.4,12.3,27.9,27.4,27.9s27.4-12.5,27.4-27.9
			C406.6,314.5,394.3,302,379.2,302z M379.2,339.2c-5,0-9.1-4.2-9.1-9.3s4.1-9.3,9.1-9.3s9.1,4.2,9.1,9.3S384.3,339.2,379.2,339.2z"
			/>
	</g>
</g>
<g>
	<g>
		<path fill="#00A69A" d="M315.5,230.2c-15.1,0-27.4,12.5-27.4,27.9s12.3,27.9,27.4,27.9c15.1,0,27.4-12.5,27.4-27.9
			S330.6,230.2,315.5,230.2z M315.5,267.5c-5,0-9.1-4.2-9.1-9.3c0-5.1,4.1-9.3,9.1-9.3c5,0,9.1,4.2,9.1,9.3
			C324.6,263.3,320.5,267.5,315.5,267.5z"/>
	</g>
</g>
<g>
	<g>
		<path fill="#404175" d="M333.7,425.3H81.2c-5,0-9.1,4.2-9.1,9.3c0,5.1,4.1,9.3,9.1,9.3h252.6c5,0,9.1-4.2,9.1-9.3
			C342.9,429.5,338.8,425.3,333.7,425.3z"/>
	</g>
</g>
<g>
	<g>
		<path fill="#00A69A" d="M216.2,373.1h-56.6c-5,0-9.1,4.2-9.1,9.3s4.1,9.3,9.1,9.3h56.6c5,0,9.1-4.2,9.1-9.3
			S221.2,373.1,216.2,373.1z"/>
	</g>
</g>
<g>
	<g>
		<path fill="#00A69A" d="M256.1,375.9c-1.7-1.7-4.1-2.7-6.5-2.7s-4.8,1-6.5,2.7c-1.7,1.7-2.7,4.1-2.7,6.6s1,4.9,2.7,6.6
			c1.7,1.7,4,2.7,6.5,2.7c2.4,0,4.8-1,6.5-2.7c1.7-1.7,2.7-4.1,2.7-6.6C258.8,380,257.8,377.6,256.1,375.9z"/>
	</g>
</g>
<g>
	<g>
		<path fill="#00A69A" d="M216.2,321h-56.6c-5,0-9.1,4.2-9.1,9.3s4.1,9.3,9.1,9.3h56.6c5,0,9.1-4.2,9.1-9.3
			C225.3,325.2,221.2,321,216.2,321z"/>
	</g>
</g>
<g>
	<g>
		<path fill="#00A69A" d="M101.2,344.7c-6,0-10.9-4.2-10.9-9.3s4.9-9.3,10.9-9.3s10.9,4.2,10.9,9.3c0,5.1,4.1,9.3,9.1,9.3
			c5,0,9.1-4.2,9.1-9.3c0-12.3-8.4-22.8-20.1-26.5c-0.1-5.1-4.1-9.1-9.1-9.1s-9,4.1-9.1,9.1C80.5,312.6,72,323.1,72,335.4
			c0,15.4,13.1,27.9,29.2,27.9c6,0,10.9,4.2,10.9,9.3c0,5.1-4.9,9.3-10.9,9.3c-6,0-10.9-4.2-10.9-9.3c0-5.1-4.1-9.3-9.1-9.3
			s-9.1,4.2-9.1,9.3c0,12.3,8.4,22.8,20.1,26.5v0.5c0,5.1,4.1,9.3,9.1,9.3c5,0,9.1-4.2,9.1-9.3v-0.5c11.6-3.7,20.1-14.2,20.1-26.5
			C130.4,357.2,117.3,344.7,101.2,344.7z"/>
	</g>
</g>
</svg>
