<?xml version="1.0" encoding="utf-8"?>
<!-- Generator: Adobe Illustrator 18.1.1, SVG Export Plug-In . SVG Version: 6.00 Build 0)  -->
<svg version="1.1" id="Calque_1" xmlns="http://www.w3.org/2000/svg" xmlns:xlink="http://www.w3.org/1999/xlink" x="0px" y="0px"
	 viewBox="0 0 512 512" enable-background="new 0 0 512 512" xml:space="preserve">
<g>
	<g>
		<path fill="#404175" d="M353.5,270.2c-4.1-1.9-8.1-4-12.2-5.7c-15.9-6.6-32.1-12.5-47.7-19.8c-15.6-7.3-29.9-18.1-46-23.5
			c-27.4-9.1-48.8-25.6-69-45c-6.2-6-15.4-8.9-25.6-14.5c-1.6,10-2.3,15-3.3,21.3c-24.4,0-49,0-75.2,0c0-54.2,0-108.8,0-166
			c23.2,0,49.9-7,69.6,1.8c24.7,11,47.9,3.8,71.3,7.8c33,5.6,66,11.2,98.9,17.5c10.1,1.9,19.7,6.2,29.8,8.6
			c36.2,8.7,54.1,39.5,77.7,63.5c14.1,14.3,17.6,30.4,13.3,49.6c-5.3,23.7-9.1,47.7-14.1,71.5c-5.8,27.4-19.6,33.8-47.7,22
			 M150.6,95.3c0,13,0.6,26-0.2,38.9c-0.6,10.6,3.3,15.2,13.9,15.1c11.7-0.1,19.5,5.1,28.5,14.1c14.8,14.9,33.1,27.7,52.1,36.7
			c22.7,10.8,46.9,17.1,66.6,34.8c8.5,7.6,23.3,10,35.5,11.1c11.4,1,15.8-7.1,12.4-18.9c-4.5-15.3-16.9-21.5-29.6-27.3
			c-16.1-7.3-28.7-17.7-35.6-34.6c-6.4-15.5-4.4-34,5.1-41.7c13-10.5,25.6-10.4,42.1,2.4c12.5,9.7,23.5,21.5,35.7,31.6
			c6.9,5.7,6.9,10.2,3.6,18.4c-8.2,20.4-9.9,41.4,2.6,61.1c2.6,4.1,8,6.5,12.1,9.6c2.6-4.2,6.4-8.1,7.5-12.6
			c3.6-14.5,4.5-29.9,9.6-43.8c12.7-34.7,3.5-61.9-24.5-84.3c-13.1-10.5-23.9-26.1-38.7-31.9c-59.8-23.2-121.9-35.8-186.7-30.6
			c-9.5,0.8-12.6,3.9-12.2,13.1C151,69.3,150.6,82.3,150.6,95.3z M132.8,101.4c0-13.4,0.2-26.9,0-40.3c-0.6-28.3,6.8-27.3-28.8-27.6
			C93.3,33.5,89.3,37.2,89.4,48c0.5,30,0.2,60,0.1,89.9c0,31.9,0,31.7,31.6,29.7c8.4-0.5,12.1-3.2,11.8-12
			C132.5,137.6,132.8,119.5,132.8,101.4z M353.8,192.3c2-0.8,3.9-1.6,5.9-2.4c0-8,3.3-18.7-0.6-23.4c-9.7-11.6-22-21.2-34.4-30.1
			c-8.9-6.3-17.6-1.1-15.4,9.6c2,9.9,6.5,20.9,13.5,27.8C331.1,182.1,343.3,186.3,353.8,192.3z"/>
	</g>
</g>
<path fill="#00A69A" d="M383.9,282.5c-11-4.1-15-9.8-11.7-21c0.2-0.7,0.5-1.5,0.7-2.3l-19.5,11c-3.4,3.8-6.1,9.7-10.3,11.1
	c-45.7,15.4-50.3,75.3-17.7,102.4c6.5,5.4,11.4,16.4,11.6,25c0.5,24.6-1.8,49.3-2.8,74c-0.2,4.5,0.8,8.9,1.2,13
	c19.2,4.7,34,1.5,46.6-13.7c7-8.5,11.7-15.9,11-27.4c-1-16,0.4-32.2-0.4-48.2c-0.6-11.6,2.7-19.7,11.5-28.2
	C435.4,348.2,424.5,297.6,383.9,282.5z M389.6,367.5c-12.8,8.3-15.5,18.2-14.8,32c1,18.1,0.4,36.3,0.2,54.4
	c-0.2,12.7-6.3,19.7-21.1,25c-7.6-13.7,1.5-21.6,10.2-29.5c-15.3-23.5-15.3-23.5-1.6-39.9c-4.2-10.1-7.4-19.3-11.9-27.7
	c-2.2-4.1-6.7-7-10.6-10c-13.1-10.3-21-23.2-18.1-40.2c2.7-16.2,11.6-28.2,31.1-33.7c0.6,9.8,1.2,17.9,1.8,26.7
	c5.1,0.3,9.6,0.5,15,0.8c0.9-9.2,1.7-17.6,2.6-26.7c17.7,2.9,26.5,13.5,30.4,27.4C407.2,342,404,358.1,389.6,367.5z"/>
<g>
	<g>
		<path fill="#00A69A" d="M276.2,389.2c16.8,1.4,28.9,2.4,42.8,3.6c1.1,2.2,3,6.2,5.9,12.2c-6.6,1.5-12.2,4.6-17,3.7
			c-20.3-4.1-32.7,6.7-44.4,20.6c-5.3,6.3-12.7,10.8-17.3,17.4c-19.8,28.1-55,28.7-77.3-5.1c11.8-9.1,24.9-17.7,36-28.2
			c8.9-8.4,15-19.7,23.3-28.9c8.5-9.4,18.2-16.5,17.1-32.4c-0.7-11.4,3.6-24.5,9.5-34.6c9.4-16.2,24.9-24.9,45.4-24.5
			c0,5.9,0,10.9,0,15.6c-30.6,8.4-39.9,22.5-37.6,53c0.5,6.4-3.1,13.9-6.8,19.7c-8.5,13.2-27.6,19.5-25.7,39.8
			c0.1,1.5-4.2,4-6.9,5.2c-3.7,1.7-8.4,1.8-11.6,4.1c-5.1,3.7-9.4,8.6-13.6,13.2c-0.2,0.2,3,5,4.3,4.9c6.8-0.8,15.6-0.3,19.9-4.3
			C241.5,425.8,259.7,406.1,276.2,389.2z"/>
	</g>
</g>
</svg>
