<?xml version="1.0" encoding="utf-8"?>
<!-- Generator: Adobe Illustrator 18.1.1, SVG Export Plug-In . SVG Version: 6.00 Build 0)  -->
<svg version="1.1" id="Calque_1" xmlns="http://www.w3.org/2000/svg" xmlns:xlink="http://www.w3.org/1999/xlink" x="0px" y="0px"
	 viewBox="0 0 512 512" enable-background="new 0 0 512 512" xml:space="preserve">
<g>
	<g>
		<path fill="#404175" d="M247.5,168.5c-0.2,0.7-0.3,1.5-0.3,2.3v34.5c-2.4-3.1-5.1-6.1-8.2-9c-30.3-27.8-81.5-24.6-86.7-24.1
			c-2.3,0.1-4.6,1-6.3,2.7c-1.5,1.5-2.3,3.4-2.5,5.4c-0.8,6.9-5,55.2,25,82.8h0c22.2,20.4,55.9,23.6,74.7,23.6c1.4,0,2.7,0,4,0v14.3
			h-44.4c-5.1,0-9.3,3.9-9.3,8.7v151h-16.8v-95.5c0-4.8-4.2-8.7-9.3-8.7H59.7c-5.1,0-9.3,3.9-9.3,8.7v95.5H28.1
			c-5.1,0-9.3,3.9-9.3,8.7s4.2,8.7,9.3,8.7h456.6c5.1,0,9.3-3.9,9.3-8.7s-4.2-8.7-9.3-8.7h-22.3v-57.3c0-4.8-4.2-8.7-9.3-8.7
			s-9.3,3.9-9.3,8.7v57.3h-89.1V262.7h89.1v59.9c0,4.8,4.2,8.7,9.3,8.7s9.3-3.9,9.3-8.7v-68.6c0-4.8-4.2-8.7-9.3-8.7H345.5
			c-5.1,0-9.3,3.9-9.3,8.7v206.5h-16.6v-151c0-4.8-4.2-8.7-9.3-8.7h-44.7v-39.6c1.2-0.4,2.2-1.1,3.2-1.9l19.4-18.1
			c1.8,0.1,4.1,0.2,6.9,0.2c14.3,0,39.9-2.4,56.9-18.1c22.8-20.9,19.8-57.1,19.2-62.9c-0.1-2-1-4-2.7-5.6c-1.6-1.5-3.7-2.4-5.9-2.5
			c-5.2-0.4-42.9-2.8-66,18.5c-19,17.4-20.6,45-20.4,57l-10.6,9.9v-67c0-0.8-0.1-1.5-0.3-2.3 M309.6,183.2
			c12.4-11.4,32.5-13.5,43.5-13.7c0.1,10.6-1.7,30-14.1,41.5c-8.6,7.9-21.1,11.1-31.7,12.4l10.9-10.2c3.6-3.4,3.6-8.9,0-12.3
			c-3.6-3.4-9.5-3.4-13.1,0l-8.8,8.2C298.2,200.2,302,190.3,309.6,183.2z M225.8,236.9c-3.6-3.4-9.5-3.4-13.1,0
			c-3.6,3.4-3.6,8.9,0,12.3l21.2,19.8c-16.1-1-37.9-5-52.4-18.3c-19-17.4-20.5-47.6-20-61.5c14.5,0,45.5,2.1,64.5,19.5
			c14.3,13.1,19.1,32.8,20.5,47.6L225.8,236.9z M158.1,460.6H69v-86.8h89.1V460.6z M256.4,151.7 M301.1,460.6H249v-52.9
			c0-4.8-4.2-8.7-9.3-8.7c-5.1,0-9.3,3.9-9.3,8.7v52.9H212V318.3h89.1V460.6z"/>
	</g>
</g>
<g>
	<g>
		<path fill="#404175" d="M256.4,136.8"/>
	</g>
</g>
<path fill="#00A69A" d="M256.4,33.7c-39.9,0-72.4,30.4-72.4,67.7c0,34.5,27.7,63,63.4,67.1h17.9c35.7-4.1,63.4-32.7,63.4-67.1
	C328.8,64,296.3,33.7,256.4,33.7z M256.4,151.7c-29.7,0-53.8-22.6-53.8-50.3S226.8,51,256.4,51c29.7,0,53.8,22.6,53.8,50.3
	S286.1,151.7,256.4,151.7z"/>
<path fill="#00A69A" d="M256.4,136.8c3.7,0,6.7-2.6,7-5.9c8.3-2.6,14.3-9.5,14.3-17.7c0-10.3-9.6-18.7-21.3-18.7
	c-4,0-7.2-2.5-7.2-5.5c0-3,3.2-5.5,7.2-5.5c4,0,7.2,2.5,7.2,5.5c0,3.6,3.2,6.6,7.1,6.6c3.9,0,7.1-3,7.1-6.6c0-8.2-6-15.1-14.3-17.7
	c-0.3-3.4-3.3-6.1-7-6.1c-3.7,0-6.8,2.7-7,6.1c-8.3,2.6-14.3,9.5-14.3,17.7c0,10.3,9.6,18.7,21.3,18.7c4,0,7.2,2.5,7.2,5.5
	c0,3-3.2,5.5-7.2,5.5c-4,0-7.2-2.5-7.2-5.5c0-3.6-3.2-6.6-7.1-6.6s-7.1,3-7.1,6.6c0,8.2,6,15.1,14.3,17.7
	C249.8,134.2,252.8,136.8,256.4,136.8"/>
</svg>
