<?xml version="1.0" encoding="UTF-8"?><svg xmlns="http://www.w3.org/2000/svg" xmlns:xlink="http://www.w3.org/1999/xlink" height="60.2" preserveAspectRatio="xMidYMid meet" version="1.0" viewBox="-0.6 -0.5 55.7 60.2" width="55.7" zoomAndPan="magnify"><g fill="#CFC0E4" id="change1_1"><path d="M16.4,0.2c-0.8-0.7-2.1,0.5-1.2,1.2c3.8,3.2,6.7,7.3,9.6,11.3c0.6,0.9,2.1,0,1.5-0.9 C23.3,7.7,20.3,3.6,16.4,0.2z" fill="inherit"/><path d="M0.4,33.7c2.9,1.4,5.8,2.9,8.8,4.1c1,0.4,1.5-1.2,0.5-1.7c-2.9-1.2-5.6-2.5-8.4-3.9 C0.3,31.7-0.6,33.2,0.4,33.7z" fill="inherit"/><path d="M17.1,38.3c-1.2-2.5-1.7-5.2-2.2-7.8c-0.2-1.1-1.9-0.6-1.7,0.5c0.6,2.8,1.1,5.6,2.4,8.2 C16.1,40.1,17.6,39.3,17.1,38.3z" fill="inherit"/><path d="M17.8,54.2c0-1.1-1.7-1.1-1.7,0c0,1.5,0.1,3,0.7,4.5c0.5,1,1.9,0.1,1.5-0.9C17.8,56.7,17.8,55.4,17.8,54.2z" fill="inherit"/><path d="M53.6,13c-3.3,0.6-6.2,2.1-8.8,4.1c-0.9,0.7,0,2.1,0.9,1.5c2.6-1.9,5.3-3.3,8.4-3.9 C55.1,14.4,54.7,12.7,53.6,13z" fill="inherit"/><path d="M40.9,29c-3.6-1.1-7.4-1.2-11.1-1.2c-1.1,0-1.1,1.7,0,1.7c3.6,0,7.2,0,10.7,1.1C41.5,31,41.9,29.4,40.9,29z" fill="inherit"/><path d="M40.3,50.3c-2.4-0.7-4.3-2.3-5.8-4.2c-0.7-0.9-2.2,0-1.5,0.9c1.8,2.3,4,4.2,6.8,5 C40.9,52.2,41.3,50.5,40.3,50.3z" fill="inherit"/><path d="M50.6,32.3c-1-1.5-2.3-2.9-3.6-4.2c-0.8-0.8-2,0.4-1.2,1.2c1.2,1.2,2.3,2.4,3.3,3.8 C49.7,34.1,51.2,33.2,50.6,32.3z" fill="inherit"/><path d="M53.7,43.5c-1.1-0.6-2-1.5-2.6-2.6c-0.5-1-2-0.1-1.5,0.9c0.7,1.3,1.8,2.5,3.2,3.2 C53.8,45.5,54.7,44,53.7,43.5z" fill="inherit"/></g></svg>