<?xml version="1.0" encoding="UTF-8"?><svg xmlns="http://www.w3.org/2000/svg" xmlns:xlink="http://www.w3.org/1999/xlink" height="261.4" preserveAspectRatio="xMidYMid meet" version="1.0" viewBox="119.1 81.8 187.2 261.4" width="187.2" zoomAndPan="magnify"><g fill="none" stroke="#5d9ad0" stroke-linecap="round" stroke-linejoin="round" stroke-miterlimit="10" stroke-width="6"><path d="M303.1,114.3v213.9c0,6.6-5.4,12-12,12H134.1c-6.6,0-12-5.4-12-12v-13.9"/><path d="M122.1,241.2V97c0-6.6,5.4-12,12-12H273"/><path d="M122.1 255.7L122.1 279.7"/><path d="M303.1,114.3l-24.8,2.6c-3.8-0.1-6.9-3-7.2-6.8L273,85L303.1,114.3z"/><path d="M205.8 140.3L277.4 140.3"/><path d="M205.8 167.8L277.4 167.8"/><path d="M147.8 195.3L277.4 195.3"/><path d="M147.8 222.7L277.4 222.7"/><path d="M147.8 250.2L277.4 250.2"/><path d="M147.8 277.6L277.4 277.6"/><path d="M147.8 305.1L277.4 305.1"/><path d="M147.8,140.3v-6.8c0-2.2,1.8-4,4-4h30.1c2.2,0,4,1.8,4,4V173c0,2.2-1.8,4-4,4h-30.1c-2.2,0-4-1.8-4-4v-19.8"/></g></svg>