<svg xmlns="http://www.w3.org/2000/svg" viewBox="0 0 718.01 207.21"><defs><style>.cls-1{fill:#69bab3;}.cls-2{fill:#3c4473;}</style></defs><title>NASRULEX</title><g id="X"><polygon class="cls-1" points="714.92 57.28 693.33 57.34 675.28 87.04 656.69 57.44 634.91 57.51 663.61 101.55 632.21 149.8 654.56 149.74 674.99 117.76 695.54 149.62 718.01 149.56 686.34 102.18 714.92 57.28"/></g><g id="E"><polygon class="cls-1" points="574.19 134.41 574.12 109.29 620.45 109.17 620.41 93.62 574.08 93.75 574.02 73.29 623.81 73.15 623.77 57.54 555.34 57.73 555.6 150.01 625.79 149.82 625.75 134.27 574.19 134.41"/></g><g id="L"><polygon class="cls-1" points="542.32 150.05 542.27 134.5 495.94 134.63 495.57 0 476.93 0 477.35 150.23 542.32 150.05"/></g><g id="U"><path class="cls-2" d="M504.65,135.88l.14,51.05A104.8,104.8,0,0,1,504,202.6a12.84,12.84,0,0,1-4.83,8q-4,3.25-11.95,3.28t-12.32-3.4a15,15,0,0,1-5.72-9.08q-.7-3.52-.73-15.42l-.14-50-18.64.05.14,49.23q0,15.48,1.89,23.41A25.34,25.34,0,0,0,457,218.88a28.53,28.53,0,0,0,10.81,7.9q6.84,3,20.06,3,10.95,0,17.75-2.85a28.16,28.16,0,0,0,10.83-7.55,25.94,25.94,0,0,0,5.54-11.6q1.5-6.87,1.45-23.49l-.14-48.47Z" transform="translate(-66.33 -77.82)"/></g><g id="R"><path class="cls-2" d="M379.34,190q6.42,0,9.38,1a14.24,14.24,0,0,1,5.62,3.82q2.64,2.79,9.85,13.54l13.53,20,22.29-.06-11.32-18q-6.7-10.76-10.65-15a43.47,43.47,0,0,0-10-7.72q12.13-1.8,18.23-8.58T432.33,162a26.59,26.59,0,0,0-4.07-14.53,21.17,21.17,0,0,0-10.76-8.81q-6.71-2.48-21.5-2.43l-39.22.11L357.19,285h18.64l-.27-95Zm-3.88-38.13,14.54,0q11.33,0,13.6.27a11.49,11.49,0,0,1,7,3.6,11.1,11.1,0,0,1,2.5,7.52,12,12,0,0,1-1.87,6.93,10.07,10.07,0,0,1-5.21,3.92q-3.33,1.14-16.74,1.18l-13.79,0Z" transform="translate(-66.33 -77.82)"/></g><g id="S"><path class="cls-2" d="M327.28,177.7q-6.52-3.42-20.13-6.59T290,165a7.08,7.08,0,0,1-2.79-5.59,6.7,6.7,0,0,1,2.94-5.74q4.59-3.34,12.71-3.37,7.88,0,11.81,3.08t5.16,10.22l18.63-.88q-.48-12.71-9.28-20.3T303,134.86q-10.65,0-18.16,3.26a25.09,25.09,0,0,0-11.49,9.38A24.23,24.23,0,0,0,278,179.25q6.06,5.4,21.05,9.07,11.65,2.87,14.93,4,4.79,1.68,6.72,4a8.36,8.36,0,0,1,1.93,5.56q0,5.1-4.54,8.92t-13.55,3.85q-8.5,0-13.52-4.25T284.3,197l-18.12,1.81q1.88,15.48,11.27,23.54t26.9,8q12,0,20.07-3.43a26.43,26.43,0,0,0,12.44-10.32,27.2,27.2,0,0,0,4.36-14.87q0-8.76-3.72-14.69A25.89,25.89,0,0,0,327.28,177.7Z" transform="translate(-66.33 -77.82)"/></g><g id="A"><path class="cls-2" d="M204.19,136.71,168.5,229.1l19.77-.06,7.56-21,36.89-.1,8.11,20.94,20.27-.06-37.21-92.18Zm-2.68,55.78,12.37-34.27,12.81,34.2Z" transform="translate(-66.33 -77.82)"/></g><g id="N"><polygon class="cls-2" points="68.2 59.09 68.37 120.71 22.12 59.21 0 59.28 0.26 151.56 21.38 151.5 21.21 91.32 66.77 151.38 89.58 151.31 89.32 59.03 68.2 59.09"/></g></svg>