<?xml version="1.0" encoding="utf-8"?>
<!-- Generator: Adobe Illustrator 18.1.1, SVG Export Plug-In . SVG Version: 6.00 Build 0)  -->
<svg version="1.1" id="Calque_1" xmlns="http://www.w3.org/2000/svg" xmlns:xlink="http://www.w3.org/1999/xlink" x="0px" y="0px"
	 viewBox="0 0 512 512" enable-background="new 0 0 512 512" xml:space="preserve">
<g>
	<g>
		<path fill="#404175" d="M116.7,445.7L103,426.2c-2.9-4.1-8.6-5.1-12.7-2.2c-4.1,2.9-5.1,8.7-2.2,12.8l13.8,19.5
			c1.8,2.5,4.6,3.9,7.5,3.9c1.8,0,3.7-0.6,5.3-1.7C118.7,455.6,119.7,449.8,116.7,445.7z"/>
	</g>
</g>
<g>
	<g>
		<path fill="#404175" d="M227.6,453.9l-15-71.7c-7.3-34.9-27.5-65-56.9-84.9l-32-21.6c-12.8-8.7-30-6.8-40.7,4.2V169.3
			c0-14.5-9.8-26.9-24-30c-9.1-2-18.5,0.2-25.8,6c-7.3,5.9-11.4,14.6-11.4,24v142.4c0,18.7,5.7,36.5,16.4,51.8l16.3,23.1
			c1.8,2.5,4.6,3.9,7.5,3.9c1.8,0,3.7-0.6,5.3-1.7c4.1-2.9,5.1-8.7,2.2-12.8l-16.3-23.1c-8.5-12.1-13-26.3-13-41.1V169.3
			c0-3.8,1.7-7.3,4.6-9.7c2.9-2.4,6.7-3.2,10.4-2.4c5.7,1.3,9.6,6.2,9.6,12.1v112.9c0,16,5.8,31.2,16.5,43.1
			c0.5,0.5,0.9,1.1,1.4,1.6c6.1,6.5,13.2,14.1,19.9,21.3l9.4,10.1c0,0,0.1,0.1,0.1,0.1c8,8.6,14,15,14.1,15.1
			c3.5,3.7,9.2,3.9,12.9,0.4c3.7-3.5,3.9-9.3,0.4-13c-0.2-0.2-10.9-11.6-23.1-24.7l-20.9-22.4c-0.1-0.1-0.1-0.1-0.2-0.2
			c-4.9-5.9-4.8-14.5,0.3-20.3c4.6-5.2,12.3-6.2,18-2.3l31.9,21.6c25.4,17.2,42.9,43.3,49.2,73.4l15,71.7c0.9,4.3,4.7,7.3,8.9,7.3
			c0.6,0,1.3-0.1,1.9-0.2C225.4,463.7,228.6,458.9,227.6,453.9z"/>
	</g>
</g>
<g>
	<g>
		<path fill="#404175" d="M478.1,145.3c-7.3-5.9-16.7-8.1-25.8-6c-14.1,3.1-24,15.5-24,30v110.6c-10.7-11-27.9-12.8-40.7-4.2
			l-32,21.6c-29.4,19.9-49.6,50-56.9,84.9l-15,71.7c-1,5,2.1,9.8,7.1,10.9c0.6,0.1,1.3,0.2,1.9,0.2c4.2,0,8-3,8.9-7.3l15-71.7
			c6.3-30.2,23.8-56.2,49.2-73.4l32-21.6c5.7-3.9,13.4-2.9,18,2.3c5.1,5.8,5.2,14.4,0.3,20.3c-0.1,0.1-0.1,0.1-0.2,0.2
			c0,0-43.8,46.9-44,47.1c-3.5,3.7-3.3,9.5,0.4,13c3.7,3.5,9.5,3.3,12.9-0.4c0.1-0.1,37.4-40,43.5-46.5c0.5-0.5,1-1.1,1.4-1.6
			c10.6-11.9,16.5-27.1,16.5-43.1v-113c0-5.8,4-10.8,9.6-12.1c3.7-0.8,7.4,0.1,10.4,2.4c2.9,2.4,4.6,5.9,4.6,9.7v142.4
			c0,14.8-4.5,29-13,41.1l-69,97.7c-2.9,4.1-2,9.9,2.2,12.8c1.6,1.1,3.5,1.7,5.3,1.7c2.9,0,5.7-1.3,7.5-3.9l69-97.7
			c10.7-15.2,16.4-33.1,16.4-51.8V169.3C489.5,159.9,485.3,151.2,478.1,145.3z"/>
	</g>
</g>
<g>
	<g>
		<polygon fill="#00A69A" points="226.7,173.3 226.7,173.3 226.7,173.3 		"/>
		<path fill="#00A69A" d="M286.2,171.6 M353.2,242.5c0-1.1,0-2.3-0.1-3.4h42.1c5,0,9.1-4.1,9.1-9.2v-17.1c0-20.1-13.6-37.3-33-42
			l-16.3-3.9V164c10.6-7.4,17.5-19.8,17.5-33.7v-21.2c0-22.7-18.3-41.1-40.9-41.1c-10.1,0-19.4,3.7-26.5,9.9c-0.4-1-0.9-2.1-1.4-3.1
			c-4.4,3.8-3.4,10-9.1,12.6c1,2.4-4.7,2.4-4.3,5.1l2.1,1.1c0,9.7,4,18.6,0,28.2l-1.7,7.2c-0.1,2.4-0.4,4.8-1,7.1
			c4,6.8,5.7,15.2,9.8,22c0.3-0.4,0.6-0.8,0.9-1.3c2.3,2.7,4.9,5.1,7.9,7.2v2.9l-16.3,3.9c-2.5,0.6-14.9,4.8-17.2,5.9l22.8,13.6
			l30,12.3l11.9,22.3 M331.7,86.4c12,0,21.8,9.4,22.6,21.2h-12.7c-10.7,0-21.2-2.6-30.6-7.5C314.4,92,322.4,86.4,331.7,86.4z
			 M309.1,129c0-0.4,0-0.9,0-1.3v-8.2c10.2,4.3,21.3,6.5,32.4,6.5h12.7v4.4c0,12.5-10.1,22.7-22.6,22.7c-12.5,0-22.6-10.2-22.6-22.7
			V129z M386.1,220.8h-37.1c-6.7-16.3-20.9-28.9-38.8-33.2l-4.6-1.1l13.7-3.3c1.1-0.2,2.3-0.7,3.3-1.3c2.7-1.8,4.2-4.7,4.2-7.7
			c0-0.1,0-0.1,0-0.2v-2.8c1.7,0.2,3.4,0.3,5.1,0.3c1.7,0,3.4-0.1,5.1-0.3v3.1c0,4.2,2.9,7.9,7,8.9l23.3,5.6
			c11.1,2.7,18.9,12.6,18.9,24.1V220.8z"/>
		<path fill="#00A69A" d="M173,224.3l9.2-22.2l42.3-15.7l6.2-3.8l-3.9-10c0,0-4.8-1.2-7.3-1.8l-16.3-3.9V164
			c2.9-2.1,5.6-4.5,7.9-7.3c0.3,0.4,0.6,0.8,0.8,1.2c2.8-6.2,6.8-12.4,10.9-18.6c-1.3-3.7-2-7.6-2-11.7V118l-1.6-0.5
			c0-6,0-12.6,0-18.4l1.6,0.5v-1.5c0-1.6,0.1-3.2,0.4-4.7c-4-6.6-7.4-13.8-13.3-18.5c-0.5,1-1,2-1.4,3.1c-7.2-6.2-16.5-9.9-26.6-9.9
			c-22.5,0-40.9,18.4-40.9,41.1v1.4v19.8c0,13.9,6.9,26.2,17.5,33.7v2.9l-16.3,3.9c-19.4,4.7-33,21.9-33,42V230
			c0,5.1,4.1,9.2,9.1,9.2h42c-0.1,1.1-0.1,2.2-0.1,3.4 M179.8,86.4c9.3,0,17.3,5.7,20.8,13.7c-9.4,4.9-19.9,7.5-30.6,7.5h-12.7
			C158,95.8,167.8,86.4,179.8,86.4z M157.1,126h12.7c11.2,0,22.2-2.2,32.5-6.5v10.9c0,12.5-10.1,22.7-22.6,22.7
			s-22.6-10.2-22.6-22.7V126z M201.3,187.6c-18,4.3-32.1,16.9-38.8,33.2h-37v-8c0-11.5,7.8-21.4,18.9-24.1l23.3-5.6
			c4.1-1,7-4.7,7-8.9v-3.1c1.7,0.2,3.4,0.3,5.1,0.3c1.7,0,3.4-0.1,5.1-0.3v2.6c0,0.1,0,0.3,0,0.4c0,3,1.5,6,4.2,7.7
			c1,0.7,2.1,1.1,3.2,1.3l13.6,3.3L201.3,187.6z"/>
	</g>
</g>
<g>
	<path fill="none" stroke="#404175" stroke-width="4.9689" stroke-miterlimit="10" d="M214.9,132.5c0,0-4.8-45,2.5-61
		c10.3-22.3,29.3-23,42.5-22.3s39.2,15.2,38.8,38.3c-0.3,16.6,1.5,41.5-2.2,52.1c-1.9,5.5-12.1,25.8-37.3,27.7
		S217.1,155.4,214.9,132.5z"/>
	<path fill="none" stroke="#404175" stroke-width="4.9689" stroke-miterlimit="10" d="M214.9,103.8c0,0,28,8,56.6-14.7
		c17.6,9.8,25,13.2,25,13.2"/>
	<g>
		<path fill="#404175" d="M228,167.2c-2.7,13.7-2.4,20.8,3.6,33.1c5.3,10.9,10.9,21.6,16.4,32.4c2.9,5.6,12.3,5.8,15.2,0
			c6-12.2,12.1-24.5,18.1-36.7c5.4-11,2.2-20.4,0.2-32.3c-1.9-11.1-18.8-6.4-16.9,4.7c1.1,6.7,2.2,13.4,3.4,20.1
			c0.3-2.3,0.6-4.5,0.9-6.8c-6.9,14-13.9,28.1-20.8,42.1c5.1,0,10.1,0,15.2,0c-4.5-8.7-8.9-17.3-13.3-26.1
			c-5.6-11.3-7.3-13.9-4.9-25.9C247.2,160.8,230.2,156.1,228,167.2L228,167.2z"/>
	</g>
	<g>
		<path fill="#404175" d="M283.6,281.3c19.9,0,39.9,0,59.8,0c4.8,0,8.8-4,8.8-8.8c0-16.1,3.6-36.1-2.1-51.4
			c-10.6-28.4-41.5-42.9-70.8-41.6c-11.3,0.5-11.3,18.1,0,17.6c12-0.6,26.2,2.4,36.5,8.5c7.9,4.7,17.7,17.7,18.9,23.8
			c1.9,9.4-0.1,30.3-0.1,43.1c2.9-2.9,5.9-5.9,8.8-8.8c-19.9,0-39.9,0-59.8,0C272.3,263.8,272.3,281.3,283.6,281.3L283.6,281.3z"/>
	</g>
	<g>
		<path fill="#404175" d="M299.6,237c0,11.4,0,22.7,0,34.1c0,11.3,17.6,11.3,17.6,0c0-11.4,0-22.7,0-34.1
			C317.2,225.7,299.6,225.7,299.6,237L299.6,237z"/>
	</g>
	<g>
		<path fill="#404175" d="M227.9,263.8c-19.9,0-39.9,0-59.8,0c2.9,2.9,5.9,5.9,8.8,8.8c0-6.9,0-13.8,0-20.7c0-6.1-0.7-19.5-0.1-22.4
			c4-20.4,33.5-33.3,55.4-32.3c11.3,0.5,11.3-17,0-17.6c-29.2-1.4-60.2,13.1-70.8,41.6c-5.7,15.3-2.1,35.3-2.1,51.4
			c0,4.8,4,8.8,8.8,8.8c19.9,0,39.9,0,59.8,0C239.2,281.3,239.3,263.8,227.9,263.8L227.9,263.8z"/>
	</g>
	<g>
		<path fill="#404175" d="M194.4,237c0,11.4,0,22.7,0,34.1c0,11.3,17.6,11.3,17.6,0c0-11.4,0-22.7,0-34.1
			C212,225.7,194.4,225.7,194.4,237L194.4,237z"/>
	</g>
</g>
</svg>
